# xmcd CD database file
#
# Track frame offsets:
#	150
#	7248
#	36999
#	65604
#	73304
#	80700
#	106188
#	123775
#
# Disc length: 2136 seconds
#
# Revision: 0
# Processed by: cddbd v1.5.2PL0 Copyright (c) Steve Scherf et al.
# Submitted via: CDex 1.99.1
#
DISCID=70085608
DTITLE=Flora Purim and Airto Moreira - Live At The Hollywood Bowl 1979
DYEAR=2015
DGENRE=Jazz
TTITLE0=Billy Taylor Introduction
TTITLE1=From The Lonely Afternoon
TTITLE2=500 Miles High
TTITLE3=Band Introductions
TTITLE4=Airto Tambourine Solo
TTITLE5=Open Your Eyes, You Can Fly
TTITLE6=Sometime Ago
TTITLE7=Tombo In 7/4
EXTD=YEAR: 2015
EXTT0=
EXTT1=
EXTT2=
EXTT3=
EXTT4=
EXTT5=
EXTT6=
EXTT7=
PLAYORDER=
